<svg width="90" height="28" viewBox="0 0 90 28" fill="none" xmlns="http://www.w3.org/2000/svg">
<path d="M81.437 27.1275C79.5423 27.1275 77.8444 26.7338 76.3434 25.9464C74.867 25.1344 73.6982 24.0271 72.837 22.6245C72.0003 21.1973 71.582 19.5856 71.582 17.7893C71.582 15.993 72.0003 14.3936 72.837 12.991C73.6736 11.5885 74.8055 10.4812 76.2327 9.66917C77.6845 8.85715 79.2962 8.45114 81.0679 8.45114C82.8149 8.45114 84.3528 8.83254 85.6816 9.59535C87.0349 10.3581 88.093 11.4162 88.8558 12.7696C89.6186 14.1229 90 15.6609 90 17.3833C90 17.7032 89.9754 18.0354 89.9262 18.3799C89.9016 18.7244 89.8401 19.1058 89.7417 19.5241L74.4979 19.5979V15.8331L87.4163 15.7962L85.2018 17.3833C85.1771 16.3252 85.0049 15.4517 84.685 14.7627C84.3651 14.0491 83.8976 13.5201 83.2824 13.1756C82.6919 12.8065 81.966 12.6219 81.1048 12.6219C80.1697 12.6219 79.3577 12.8311 78.6687 13.2494C78.0043 13.6431 77.4876 14.2214 77.1185 14.9842C76.7494 15.747 76.5649 16.6574 76.5649 17.7155C76.5649 18.7982 76.7617 19.7332 77.1554 20.5206C77.5491 21.2835 78.1028 21.874 78.8164 22.2923C79.5546 22.7106 80.4158 22.9198 81.4 22.9198C82.3105 22.9198 83.1225 22.7721 83.8361 22.4769C84.5743 22.157 85.2141 21.6895 85.7554 21.0743L88.7082 24.0271C87.847 25.0606 86.7889 25.8357 85.5339 26.3524C84.279 26.8691 82.9133 27.1275 81.437 27.1275Z" fill="#2B2B2B"/>
<path d="M65.2358 26.7227V0H70.477V26.7227H65.2358Z" fill="#2B2B2B"/>
<path d="M52.7393 27.0932C51.1153 27.0932 49.6512 26.6872 48.3471 25.8752C47.0429 25.0632 46.0218 23.9559 45.2836 22.5533C44.5454 21.1508 44.1763 19.5636 44.1763 17.792C44.1763 16.0203 44.5454 14.4332 45.2836 13.0306C46.0218 11.628 47.0429 10.5207 48.3471 9.70872C49.6512 8.8967 51.1153 8.49069 52.7393 8.49069C53.9943 8.49069 55.1139 8.73676 56.0981 9.22889C57.0824 9.72102 57.8821 10.41 58.4973 11.2958C59.1124 12.1571 59.4569 13.1413 59.5307 14.2486V21.3353C59.4569 22.4426 59.1124 23.4392 58.4973 24.325C57.9067 25.1862 57.107 25.8629 56.0981 26.355C55.1139 26.8472 53.9943 27.0932 52.7393 27.0932ZM53.7728 22.3319C55.0524 22.3319 56.0858 21.9136 56.8732 21.0769C57.6606 20.2157 58.0544 19.1207 58.0544 17.792C58.0544 16.8815 57.8698 16.0941 57.5007 15.4297C57.1562 14.7408 56.6641 14.2117 56.0243 13.8426C55.3845 13.4489 54.634 13.2521 53.7728 13.2521C52.9362 13.2521 52.198 13.4489 51.5582 13.8426C50.9185 14.2117 50.414 14.7408 50.0449 15.4297C49.6758 16.1187 49.4913 16.9061 49.4913 17.792C49.4913 18.6778 49.6758 19.4652 50.0449 20.1542C50.414 20.8186 50.9185 21.3476 51.5582 21.7413C52.198 22.135 52.9362 22.3319 53.7728 22.3319ZM57.796 26.7241V21.9259L58.608 17.5705L57.796 13.2521V8.85979H62.9634V26.7241H57.796Z" fill="#2B2B2B"/>
<path d="M37.7545 26.7219V8.85754H42.9957V26.7219H37.7545ZM40.3751 6.16312C39.5384 6.16312 38.8495 5.88015 38.3081 5.3142C37.7668 4.74825 37.4961 4.05926 37.4961 3.24725C37.4961 2.41063 37.7668 1.70934 38.3081 1.14339C38.8495 0.57744 39.5384 0.294464 40.3751 0.294464C41.2363 0.294464 41.9253 0.57744 42.442 1.14339C42.9834 1.70934 43.254 2.41063 43.254 3.24725C43.254 4.05926 42.9834 4.74825 42.442 5.3142C41.9253 5.88015 41.2363 6.16312 40.3751 6.16312Z" fill="#2B2B2B"/>
<path d="M26.9682 27.1275C25.1473 27.1275 23.4987 26.7215 22.0223 25.9095C20.5705 25.0729 19.414 23.941 18.5528 22.5138C17.7162 21.0866 17.2979 19.4995 17.2979 17.7524C17.2979 15.9807 17.7162 14.4059 18.5528 13.028C19.414 11.6254 20.5705 10.5181 22.0223 9.70608C23.4987 8.86945 25.1473 8.45114 26.9682 8.45114C28.8137 8.45114 30.4623 8.85715 31.9141 9.66917C33.3659 10.4812 34.5101 11.5885 35.3467 12.991C36.208 14.3936 36.6386 15.9807 36.6386 17.7524C36.6386 19.4995 36.208 21.0866 35.3467 22.5138C34.5101 23.941 33.3659 25.0729 31.9141 25.9095C30.4623 26.7215 28.8137 27.1275 26.9682 27.1275ZM26.9682 22.2923C27.8294 22.2923 28.5799 22.1078 29.2197 21.7387C29.8841 21.345 30.4008 20.8036 30.7699 20.1146C31.139 19.4257 31.3236 18.6382 31.3236 17.7524C31.3236 16.8666 31.1267 16.0915 30.733 15.4271C30.3639 14.7381 29.8595 14.2091 29.2197 13.84C28.5799 13.4463 27.8294 13.2494 26.9682 13.2494C26.1316 13.2494 25.3811 13.4463 24.7167 13.84C24.0523 14.2337 23.5356 14.7627 23.1665 15.4271C22.822 16.0915 22.6498 16.8789 22.6498 17.7893C22.6498 18.6506 22.822 19.4257 23.1665 20.1146C23.5356 20.8036 24.0523 21.345 24.7167 21.7387C25.3811 22.1078 26.1316 22.2923 26.9682 22.2923Z" fill="#2B2B2B"/>
<path d="M12.697 27.1104C10.4086 27.1104 8.6738 26.4214 7.49269 25.0434C6.31158 23.6655 5.72102 21.82 5.72102 19.507V5.07522H0V0.830597H11.1468V19.7284C11.1468 20.8603 11.4543 21.6477 12.0695 22.0906C12.6847 22.509 13.3613 22.7181 14.0995 22.7181C14.5425 22.7181 14.9854 22.6689 15.4283 22.5705C15.8958 22.472 16.4126 22.3244 16.9785 22.1276L18.1596 26.1138C17.2246 26.4091 16.3633 26.6429 15.5759 26.8151C14.8131 27.012 13.8535 27.1104 12.697 27.1104Z" fill="#2B2B2B"/>
</svg>
