<svg width="16" height="15" viewBox="0 0 16 15" fill="none" xmlns="http://www.w3.org/2000/svg">
<path fill-rule="evenodd" clip-rule="evenodd" d="M14.6998 5.45169C15.0449 5.48674 15.3123 5.17599 15.2009 4.86967L13.5389 0.300548C13.4185 -0.0302933 12.9536 -0.106764 12.719 0.165663L11.4953 1.58718C10.3926 1.07287 9.1662 0.813981 7.92147 0.840622C6.27272 0.876025 4.68114 1.41052 3.38713 2.36348C2.09312 3.31645 1.16696 4.63601 0.748603 6.12294C0.330149 7.60978 0.442191 9.18326 1.06783 10.6055C1.69347 12.0278 2.79871 13.2217 4.21644 14.0068C5.63426 14.7919 7.28767 15.1257 8.92692 14.9575C10.5662 14.7894 12.1021 14.1286 13.303 13.0749C14.3882 12.1227 15.1463 10.8962 15.488 9.55048C15.5485 9.31266 15.3734 9.08343 15.115 9.04209L14.2043 8.89641C13.9458 8.85508 13.7023 9.01749 13.6367 9.25416C13.3673 10.2263 12.8077 11.111 12.0187 11.8034C11.1141 12.5972 9.95696 13.0949 8.72201 13.2216C7.48706 13.3483 6.24148 13.0968 5.17337 12.5054C4.10525 11.9139 3.27271 11.0145 2.80137 9.94301C2.33003 8.87154 2.24562 7.68616 2.56086 6.566C2.876 5.44585 3.57381 4.45173 4.54858 3.73385C5.52346 3.01587 6.72251 2.61325 7.96458 2.58661C8.76512 2.56944 9.5555 2.70911 10.2865 2.99136L9.23561 4.21223C9.00098 4.48475 9.18177 4.89126 9.55446 4.92906L14.6998 5.45169Z" fill="#F8F8F8"/>
</svg>
